<svg fill="#FFFEFC" height="200px" width="200px" version="1.1" id="Capa_1"
    xmlns="http://www.w3.org/2000/svg" xmlns:xlink="http://www.w3.org/1999/xlink"
    viewBox="0 0 368.469 368.469" xml:space="preserve" stroke="#FFFEFC"><g id="SVGRepo_bgCarrier" stroke-width="0"></g><g id="SVGRepo_tracerCarrier" stroke-linecap="round" stroke-linejoin="round"></g><g id="SVGRepo_iconCarrier"> <path d="M256.901,302.978c-7.18,0-13-5.82-13-13c0-7.18,5.82-13,13-13h50.185v-30h-50.185c-7.18,0-13-5.82-13-13 c0-7.18,5.82-13,13-13h50.185v-22.464c0-18.945-10.539-35.428-26.072-43.91V96.78c0-53.365-43.415-96.78-96.779-96.78 S87.455,43.415,87.455,96.78v57.823c-15.533,8.482-26.072,24.965-26.072,43.91v119.955c0,27.614,22.387,50,50,50h145.703 c27.613,0,50-22.386,50-50v-15.491H256.901z M231.014,148.514h-93.559V96.78c0-25.795,20.984-46.78,46.779-46.78 c25.793,0,46.779,20.985,46.779,46.78V148.514z"></path> </g></svg>